<svg id="svg-source" height="0" version="1.1" 
  xmlns="http://www.w3.org/2000/svg" style="position:absolute; margin-left: -100%" 
  xmlns:xlink="http://www.w3.org/1999/xlink">
  <g id="users" data-iconmelon="Dripicons:2b284359e7934c3a68a30261eac0011c">
    <g>
      <path d="M12.408,19.143c4.054,0,7.351-3.297,7.351-7.351c0-4.053-3.297-7.351-7.351-7.351c-4.053,0-7.351,3.298-7.351,7.351
		C5.057,15.846,8.354,19.143,12.408,19.143z M12.408,6.986c2.65,0,4.807,2.155,4.807,4.806s-2.156,4.807-4.807,4.807
		s-4.807-2.156-4.807-4.807S9.757,6.986,12.408,6.986z"></path>
      <path d="M15.775,19.416c-0.417-0.133-0.873-0.041-1.207,0.241l-2.161,1.829l-2.161-1.829c-0.334-0.282-0.791-0.374-1.207-0.241
		C6.92,20.089,0,22.574,0,26.286c0,0.703,0.57,1.272,1.272,1.272h22.271c0.703,0,1.272-0.569,1.272-1.272
		C24.816,22.574,17.896,20.089,15.775,19.416z M3.422,25.014c1.21-1.022,3.494-2.17,5.728-2.951l2.436,2.062
		c0.475,0.401,1.169,0.401,1.644,0l2.437-2.062c2.233,0.781,4.518,1.929,5.727,2.951H3.422z"></path>
      <path d="M27.704,19.333c-0.471-0.233-1.043-0.041-1.278,0.431s-0.042,1.045,0.43,1.279c0.778,0.388,2.167,1.283,2.844,2.191h-3.392
		c-0.527,0-0.954,0.428-0.954,0.955c0,0.526,0.427,0.954,0.954,0.954h4.738c0.527,0,0.954-0.428,0.954-0.954
		C32,21.538,28.144,19.551,27.704,19.333z"></path>
      <path d="M22.975,17.705c-0.781,0-1.515-0.304-2.067-0.855c-0.373-0.373-0.977-0.373-1.35-0.001c-0.373,0.373-0.373,0.978,0,1.351
		c0.913,0.912,2.126,1.415,3.417,1.415c2.665,0,4.832-2.168,4.832-4.833c0-2.664-2.167-4.832-4.832-4.832
		c-0.651,0-1.284,0.128-1.881,0.381c-0.485,0.205-0.713,0.765-0.508,1.25s0.766,0.713,1.25,0.508c0.36-0.152,0.744-0.23,1.138-0.23
		c1.612,0,2.923,1.312,2.923,2.924C25.898,16.394,24.586,17.705,22.975,17.705z"></path>
    </g>
  </g>
  <g id="home" data-iconmelon="Dripicons:ca7d5421aabc19255467a08a7e9f7cf8">
    <g>
      <path d="M31.241,14.659L16.996,0.413C16.732,0.148,16.373,0,16,0c-0.374,0-0.732,0.148-0.997,0.413L0.758,14.659
		c-0.55,0.551-0.55,1.443,0,1.993c0.551,0.551,1.443,0.551,1.994,0L16,3.403l13.248,13.249c0.274,0.275,0.636,0.413,0.996,0.413
		s0.722-0.138,0.997-0.413C31.792,16.103,31.792,15.21,31.241,14.659z"></path>
      <path d="M25.812,15.603c-0.778,0-1.41,0.632-1.41,1.41v12.168h-3.604v-8.562c0-0.778-0.631-1.41-1.409-1.41H12.61
		c-0.778,0-1.409,0.632-1.409,1.41v8.562H7.597V17.013c0-0.778-0.631-1.41-1.409-1.41c-0.779,0-1.41,0.632-1.41,1.41V30.59
		c0,0.779,0.631,1.41,1.41,1.41h6.423c0.778,0,1.41-0.631,1.41-1.41v-8.562h3.958v8.562c0,0.779,0.631,1.41,1.41,1.41h6.424
		c0.778,0,1.41-0.631,1.41-1.41V17.013C27.223,16.234,26.591,15.603,25.812,15.603z"></path>
    </g>
  </g>
  <g id="menu" data-iconmelon="Dripicons:7a94fef4485136d7a7fa3ea7105f37b5">
    <g>
      <path d="M2.674,6.713h26.652C30.803,6.713,32,5.517,32,4.04s-1.197-2.674-2.674-2.674H2.674C1.197,1.366,0,2.563,0,4.04
		S1.197,6.713,2.674,6.713z"></path>
      <path d="M29.326,13.326H2.674C1.197,13.326,0,14.523,0,15.999c0,1.477,1.197,2.674,2.674,2.674h26.652
		c1.477,0,2.674-1.197,2.674-2.674C32,14.523,30.803,13.326,29.326,13.326z"></path>
      <path d="M29.326,25.287H2.674C1.197,25.287,0,26.483,0,27.96s1.197,2.674,2.674,2.674h26.652c1.477,0,2.674-1.197,2.674-2.674
		S30.803,25.287,29.326,25.287z"></path>
    </g>
  </g>
  <g id="calendar" data-iconmelon="Dripicons:75f28bbf4a5690a9ba36f0c13c816b4c">
    <g>
      <path d="M9.28,9.594c0.973,0,1.762-0.789,1.762-1.763V3.414c0-0.973-0.789-1.762-1.762-1.762c-0.974,0-1.762,0.789-1.762,1.762
		v4.417C7.518,8.805,8.306,9.594,9.28,9.594z"></path>
      <path d="M22.739,9.594c0.974,0,1.763-0.789,1.763-1.763V3.414c0-0.973-0.789-1.762-1.763-1.762c-0.973,0-1.762,0.789-1.762,1.762
		v4.417C20.978,8.805,21.767,9.594,22.739,9.594z"></path>
      <path d="M30.59,4.202h-3.247c-0.778,0-1.41,0.631-1.41,1.409s0.632,1.41,1.41,1.41h1.838v5.725H2.819V7.021h1.838
		c0.778,0,1.41-0.632,1.41-1.41s-0.631-1.409-1.41-1.409H1.41C0.631,4.202,0,4.833,0,5.611v23.327c0,0.778,0.631,1.409,1.41,1.409
		h29.18c0.779,0,1.41-0.631,1.41-1.409V5.611C32,4.833,31.369,4.202,30.59,4.202z M2.819,27.528V14.86h26.361v12.668H2.819z"></path>
      <path d="M13.808,7.021h4.385c0.779,0,1.41-0.632,1.41-1.41s-0.631-1.409-1.41-1.409h-4.385c-0.779,0-1.41,0.631-1.41,1.409
		S13.029,7.021,13.808,7.021z"></path>
    </g>
  </g>
  <filter id='drop-hard-shadow' data-iconmelon='filter:b93fa1365ec6c906f299932677cd4316' x="0" y="0" width="200%" height="200%">
    <feOffset result="offOut" in="SourceAlpha" dx="1" dy="1" />
    <feGaussianBlur result="blurOut" in="offOut" stdDeviation="1" />
    <feBlend in="SourceGraphic" in2="blurOut" mode="normal" />
  </filter>
</svg>